<mxfile host="app.diagrams.net" modified="2023-05-11T10:03:47.214Z" agent="Mozilla/5.0 (X11; Linux x86_64; rv:109.0) Gecko/20100101 Firefox/112.0" etag="hxFFuNSCsjTQkJkw10tY" version="21.2.9" type="github">
  <diagram id="6a731a19-8d31-9384-78a2-239565b7b9f0" name="Page-1">
    <mxGraphModel dx="2914" dy="1584" grid="1" gridSize="10" guides="1" tooltips="1" connect="1" arrows="1" fold="1" page="1" pageScale="1" pageWidth="827" pageHeight="1169" background="none" math="0" shadow="0">
      <root>
        <mxCell id="0" />
        <mxCell id="1" parent="0" />
        <mxCell id="eoMGSKBOUgeIE6Lk5qr4-2287" value="Edge 2" style="rounded=1;whiteSpace=wrap;html=1;fillColor=#dae8fc;strokeColor=#6c8ebf;fontSize=26;verticalAlign=top;" vertex="1" parent="1">
          <mxGeometry x="1400" y="590" width="741" height="390" as="geometry" />
        </mxCell>
        <mxCell id="eoMGSKBOUgeIE6Lk5qr4-2288" value="Black network" style="rounded=1;whiteSpace=wrap;html=1;fillColor=#dae8fc;strokeColor=#6c8ebf;fontSize=26;verticalAlign=top;" vertex="1" parent="1">
          <mxGeometry x="820" y="590" width="560" height="390" as="geometry" />
        </mxCell>
        <mxCell id="eoMGSKBOUgeIE6Lk5qr4-2286" value="&lt;font style=&quot;font-size: 26px;&quot;&gt;Edge 1&lt;br&gt;&lt;/font&gt;" style="rounded=1;whiteSpace=wrap;html=1;fillColor=#dae8fc;strokeColor=#6c8ebf;verticalAlign=top;" vertex="1" parent="1">
          <mxGeometry x="59" y="590" width="741" height="390" as="geometry" />
        </mxCell>
        <mxCell id="2114" value="&lt;font color=&quot;#000000&quot;&gt;s1&lt;/font&gt;" style="shape=mxgraph.cisco.switches.workgroup_switch;html=1;dashed=0;fillColor=#10739E;strokeColor=#ffffff;strokeWidth=2;verticalLabelPosition=bottom;verticalAlign=top;fontFamily=Helvetica;fontSize=26;fontColor=#FFB366" parent="1" vertex="1">
          <mxGeometry x="280" y="754" width="101" height="50" as="geometry" />
        </mxCell>
        <mxCell id="2172" style="edgeStyle=none;rounded=1;html=1;strokeColor=#23445D;endArrow=none;endFill=0;strokeWidth=4" parent="1" target="2114" edge="1">
          <mxGeometry relative="1" as="geometry">
            <mxPoint x="470" y="779" as="sourcePoint" />
          </mxGeometry>
        </mxCell>
        <mxCell id="eoMGSKBOUgeIE6Lk5qr4-2258" value="s2" style="shape=mxgraph.cisco.switches.workgroup_switch;html=1;dashed=0;fillColor=#10739E;strokeColor=#ffffff;strokeWidth=2;verticalLabelPosition=bottom;verticalAlign=top;fontFamily=Helvetica;fontSize=26;fontColor=#000000;" vertex="1" parent="1">
          <mxGeometry x="470" y="754" width="101" height="50" as="geometry" />
        </mxCell>
        <mxCell id="eoMGSKBOUgeIE6Lk5qr4-2259" style="edgeStyle=none;rounded=1;html=1;strokeColor=#23445D;endArrow=none;endFill=0;strokeWidth=4" edge="1" parent="1" target="eoMGSKBOUgeIE6Lk5qr4-2258">
          <mxGeometry relative="1" as="geometry">
            <mxPoint x="660" y="779" as="sourcePoint" />
          </mxGeometry>
        </mxCell>
        <mxCell id="eoMGSKBOUgeIE6Lk5qr4-2260" value="s3" style="shape=mxgraph.cisco.switches.workgroup_switch;html=1;dashed=0;fillColor=#10739E;strokeColor=#ffffff;strokeWidth=2;verticalLabelPosition=bottom;verticalAlign=top;fontFamily=Helvetica;fontSize=26;fontColor=#000000;" vertex="1" parent="1">
          <mxGeometry x="660" y="754" width="101" height="50" as="geometry" />
        </mxCell>
        <mxCell id="eoMGSKBOUgeIE6Lk5qr4-2261" style="edgeStyle=none;rounded=1;html=1;strokeColor=#23445D;endArrow=none;endFill=0;strokeWidth=4" edge="1" parent="1" target="eoMGSKBOUgeIE6Lk5qr4-2260">
          <mxGeometry relative="1" as="geometry">
            <mxPoint x="850" y="779" as="sourcePoint" />
          </mxGeometry>
        </mxCell>
        <mxCell id="eoMGSKBOUgeIE6Lk5qr4-2262" value="s4" style="shape=mxgraph.cisco.switches.workgroup_switch;html=1;dashed=0;fillColor=#10739E;strokeColor=#ffffff;strokeWidth=2;verticalLabelPosition=bottom;verticalAlign=top;fontFamily=Helvetica;fontSize=26;fontColor=#000000;" vertex="1" parent="1">
          <mxGeometry x="850" y="754" width="101" height="50" as="geometry" />
        </mxCell>
        <mxCell id="eoMGSKBOUgeIE6Lk5qr4-2263" style="edgeStyle=none;rounded=1;html=1;strokeColor=#23445D;endArrow=none;endFill=0;strokeWidth=4" edge="1" parent="1" target="eoMGSKBOUgeIE6Lk5qr4-2262">
          <mxGeometry relative="1" as="geometry">
            <mxPoint x="1040" y="779" as="sourcePoint" />
          </mxGeometry>
        </mxCell>
        <mxCell id="eoMGSKBOUgeIE6Lk5qr4-2264" value="s5" style="shape=mxgraph.cisco.switches.workgroup_switch;html=1;dashed=0;fillColor=#10739E;strokeColor=#ffffff;strokeWidth=2;verticalLabelPosition=bottom;verticalAlign=top;fontFamily=Helvetica;fontSize=26;fontColor=#000000;" vertex="1" parent="1">
          <mxGeometry x="1040" y="754" width="101" height="50" as="geometry" />
        </mxCell>
        <mxCell id="eoMGSKBOUgeIE6Lk5qr4-2265" style="edgeStyle=none;rounded=1;html=1;strokeColor=#23445D;endArrow=none;endFill=0;strokeWidth=4" edge="1" parent="1" target="eoMGSKBOUgeIE6Lk5qr4-2264">
          <mxGeometry relative="1" as="geometry">
            <mxPoint x="1230" y="779" as="sourcePoint" />
          </mxGeometry>
        </mxCell>
        <mxCell id="eoMGSKBOUgeIE6Lk5qr4-2266" value="s6" style="shape=mxgraph.cisco.switches.workgroup_switch;html=1;dashed=0;fillColor=#10739E;strokeColor=#ffffff;strokeWidth=2;verticalLabelPosition=bottom;verticalAlign=top;fontFamily=Helvetica;fontSize=26;fontColor=#000000;" vertex="1" parent="1">
          <mxGeometry x="1230" y="754" width="101" height="50" as="geometry" />
        </mxCell>
        <mxCell id="eoMGSKBOUgeIE6Lk5qr4-2267" style="edgeStyle=none;rounded=1;html=1;strokeColor=#23445D;endArrow=none;endFill=0;strokeWidth=4" edge="1" parent="1" target="eoMGSKBOUgeIE6Lk5qr4-2266">
          <mxGeometry relative="1" as="geometry">
            <mxPoint x="1420" y="779" as="sourcePoint" />
          </mxGeometry>
        </mxCell>
        <mxCell id="eoMGSKBOUgeIE6Lk5qr4-2268" value="s7" style="shape=mxgraph.cisco.switches.workgroup_switch;html=1;dashed=0;fillColor=#10739E;strokeColor=#ffffff;strokeWidth=2;verticalLabelPosition=bottom;verticalAlign=top;fontFamily=Helvetica;fontSize=26;fontColor=#000000;" vertex="1" parent="1">
          <mxGeometry x="1420" y="754" width="101" height="50" as="geometry" />
        </mxCell>
        <mxCell id="eoMGSKBOUgeIE6Lk5qr4-2269" style="edgeStyle=none;rounded=1;html=1;strokeColor=#23445D;endArrow=none;endFill=0;strokeWidth=4" edge="1" parent="1" target="eoMGSKBOUgeIE6Lk5qr4-2268">
          <mxGeometry relative="1" as="geometry">
            <mxPoint x="1610" y="779" as="sourcePoint" />
          </mxGeometry>
        </mxCell>
        <mxCell id="eoMGSKBOUgeIE6Lk5qr4-2270" value="s8" style="shape=mxgraph.cisco.switches.workgroup_switch;html=1;dashed=0;fillColor=#10739E;strokeColor=#ffffff;strokeWidth=2;verticalLabelPosition=bottom;verticalAlign=top;fontFamily=Helvetica;fontSize=26;fontColor=#000000;" vertex="1" parent="1">
          <mxGeometry x="1610" y="754" width="101" height="50" as="geometry" />
        </mxCell>
        <mxCell id="eoMGSKBOUgeIE6Lk5qr4-2271" style="edgeStyle=none;rounded=1;html=1;strokeColor=#23445D;endArrow=none;endFill=0;strokeWidth=4" edge="1" parent="1" target="eoMGSKBOUgeIE6Lk5qr4-2270">
          <mxGeometry relative="1" as="geometry">
            <mxPoint x="1800" y="779" as="sourcePoint" />
          </mxGeometry>
        </mxCell>
        <mxCell id="eoMGSKBOUgeIE6Lk5qr4-2272" value="s9" style="shape=mxgraph.cisco.switches.workgroup_switch;html=1;dashed=0;fillColor=#10739E;strokeColor=#ffffff;strokeWidth=2;verticalLabelPosition=bottom;verticalAlign=top;fontFamily=Helvetica;fontSize=26;fontColor=#000000;" vertex="1" parent="1">
          <mxGeometry x="1800" y="754" width="101" height="50" as="geometry" />
        </mxCell>
        <mxCell id="eoMGSKBOUgeIE6Lk5qr4-2274" value="h1" style="shape=mxgraph.cisco.computers_and_peripherals.pc;sketch=0;html=1;pointerEvents=1;dashed=0;fillColor=#036897;strokeColor=#ffffff;strokeWidth=2;verticalLabelPosition=bottom;verticalAlign=top;align=center;outlineConnect=0;fontColor=#000000;fontSize=26;" vertex="1" parent="1">
          <mxGeometry x="80" y="624" width="78" height="70" as="geometry" />
        </mxCell>
        <mxCell id="eoMGSKBOUgeIE6Lk5qr4-2275" value="h2" style="shape=mxgraph.cisco.computers_and_peripherals.pc;sketch=0;html=1;pointerEvents=1;dashed=0;fillColor=#036897;strokeColor=#ffffff;strokeWidth=2;verticalLabelPosition=bottom;verticalAlign=top;align=center;outlineConnect=0;fontColor=#000000;fontSize=26;" vertex="1" parent="1">
          <mxGeometry x="80" y="744" width="78" height="70" as="geometry" />
        </mxCell>
        <mxCell id="eoMGSKBOUgeIE6Lk5qr4-2276" value="h3" style="shape=mxgraph.cisco.computers_and_peripherals.pc;sketch=0;html=1;pointerEvents=1;dashed=0;fillColor=#036897;strokeColor=#ffffff;strokeWidth=2;verticalLabelPosition=bottom;verticalAlign=top;align=center;outlineConnect=0;fontColor=#000000;fontSize=26;" vertex="1" parent="1">
          <mxGeometry x="80" y="864" width="78" height="70" as="geometry" />
        </mxCell>
        <mxCell id="eoMGSKBOUgeIE6Lk5qr4-2277" style="edgeStyle=none;rounded=1;html=1;strokeColor=#23445D;endArrow=none;endFill=0;strokeWidth=4;exitX=0;exitY=0.5;exitDx=0;exitDy=0;exitPerimeter=0;" edge="1" parent="1" source="2114" target="eoMGSKBOUgeIE6Lk5qr4-2275">
          <mxGeometry relative="1" as="geometry">
            <mxPoint x="280" y="778.5" as="sourcePoint" />
            <mxPoint x="191" y="778.5" as="targetPoint" />
          </mxGeometry>
        </mxCell>
        <mxCell id="eoMGSKBOUgeIE6Lk5qr4-2278" style="edgeStyle=none;rounded=1;html=1;strokeColor=#23445D;endArrow=none;endFill=0;strokeWidth=4" edge="1" parent="1" source="2114" target="eoMGSKBOUgeIE6Lk5qr4-2274">
          <mxGeometry relative="1" as="geometry">
            <mxPoint x="249" y="658.5" as="sourcePoint" />
            <mxPoint x="170" y="674" as="targetPoint" />
          </mxGeometry>
        </mxCell>
        <mxCell id="eoMGSKBOUgeIE6Lk5qr4-2279" style="edgeStyle=none;rounded=1;html=1;strokeColor=#23445D;endArrow=none;endFill=0;strokeWidth=4" edge="1" parent="1" source="2114" target="eoMGSKBOUgeIE6Lk5qr4-2276">
          <mxGeometry relative="1" as="geometry">
            <mxPoint x="500" y="809" as="sourcePoint" />
            <mxPoint x="411" y="809" as="targetPoint" />
          </mxGeometry>
        </mxCell>
        <mxCell id="eoMGSKBOUgeIE6Lk5qr4-2280" value="h4" style="shape=mxgraph.cisco.computers_and_peripherals.pc;sketch=0;html=1;pointerEvents=1;dashed=0;fillColor=#036897;strokeColor=#ffffff;strokeWidth=2;verticalLabelPosition=bottom;verticalAlign=top;align=center;outlineConnect=0;fontColor=#000000;fontSize=26;" vertex="1" parent="1">
          <mxGeometry x="2020" y="624" width="78" height="70" as="geometry" />
        </mxCell>
        <mxCell id="eoMGSKBOUgeIE6Lk5qr4-2281" value="h5" style="shape=mxgraph.cisco.computers_and_peripherals.pc;sketch=0;html=1;pointerEvents=1;dashed=0;fillColor=#036897;strokeColor=#ffffff;strokeWidth=2;verticalLabelPosition=bottom;verticalAlign=top;align=center;outlineConnect=0;fontColor=#000000;fontSize=26;" vertex="1" parent="1">
          <mxGeometry x="2020" y="744" width="78" height="70" as="geometry" />
        </mxCell>
        <mxCell id="eoMGSKBOUgeIE6Lk5qr4-2282" value="h6" style="shape=mxgraph.cisco.computers_and_peripherals.pc;sketch=0;html=1;pointerEvents=1;dashed=0;fillColor=#036897;strokeColor=#ffffff;strokeWidth=2;verticalLabelPosition=bottom;verticalAlign=top;align=center;outlineConnect=0;fontColor=#000000;fontSize=26;" vertex="1" parent="1">
          <mxGeometry x="2020" y="864" width="78" height="70" as="geometry" />
        </mxCell>
        <mxCell id="eoMGSKBOUgeIE6Lk5qr4-2283" style="edgeStyle=none;rounded=1;html=1;strokeColor=#23445D;endArrow=none;endFill=0;strokeWidth=4;exitX=0.98;exitY=0.5;exitDx=0;exitDy=0;exitPerimeter=0;" edge="1" parent="1" target="eoMGSKBOUgeIE6Lk5qr4-2281" source="eoMGSKBOUgeIE6Lk5qr4-2272">
          <mxGeometry relative="1" as="geometry">
            <mxPoint x="2220" y="779" as="sourcePoint" />
            <mxPoint x="2131" y="778.5" as="targetPoint" />
          </mxGeometry>
        </mxCell>
        <mxCell id="eoMGSKBOUgeIE6Lk5qr4-2284" style="edgeStyle=none;rounded=1;html=1;strokeColor=#23445D;endArrow=none;endFill=0;strokeWidth=4;exitX=1;exitY=0;exitDx=0;exitDy=0;exitPerimeter=0;" edge="1" parent="1" target="eoMGSKBOUgeIE6Lk5qr4-2280" source="eoMGSKBOUgeIE6Lk5qr4-2272">
          <mxGeometry relative="1" as="geometry">
            <mxPoint x="2226" y="754" as="sourcePoint" />
            <mxPoint x="2110" y="674" as="targetPoint" />
          </mxGeometry>
        </mxCell>
        <mxCell id="eoMGSKBOUgeIE6Lk5qr4-2285" style="edgeStyle=none;rounded=1;html=1;strokeColor=#23445D;endArrow=none;endFill=0;strokeWidth=4;" edge="1" parent="1" target="eoMGSKBOUgeIE6Lk5qr4-2282" source="eoMGSKBOUgeIE6Lk5qr4-2272">
          <mxGeometry relative="1" as="geometry">
            <mxPoint x="2210" y="804" as="sourcePoint" />
            <mxPoint x="2351" y="809" as="targetPoint" />
          </mxGeometry>
        </mxCell>
        <mxCell id="eoMGSKBOUgeIE6Lk5qr4-2290" value="c0" style="shape=mxgraph.cisco.controllers_and_modules.system_controller;sketch=0;html=1;pointerEvents=1;dashed=0;fillColor=#036897;strokeColor=#ffffff;strokeWidth=2;verticalLabelPosition=bottom;verticalAlign=top;align=center;outlineConnect=0;fontSize=26;" vertex="1" parent="1">
          <mxGeometry x="1060" y="1022" width="61" height="58" as="geometry" />
        </mxCell>
        <mxCell id="eoMGSKBOUgeIE6Lk5qr4-2291" style="edgeStyle=orthogonalEdgeStyle;rounded=1;html=1;strokeColor=#23445D;endArrow=none;endFill=0;strokeWidth=4;exitX=0;exitY=0.5;exitDx=0;exitDy=0;exitPerimeter=0;entryX=0.866;entryY=0.954;entryDx=0;entryDy=0;entryPerimeter=0;" edge="1" parent="1" source="eoMGSKBOUgeIE6Lk5qr4-2290" target="2114">
          <mxGeometry relative="1" as="geometry">
            <mxPoint x="619" y="1012" as="sourcePoint" />
            <mxPoint x="530" y="1012" as="targetPoint" />
          </mxGeometry>
        </mxCell>
        <mxCell id="eoMGSKBOUgeIE6Lk5qr4-2292" style="edgeStyle=orthogonalEdgeStyle;rounded=1;html=1;strokeColor=#23445D;endArrow=none;endFill=0;strokeWidth=4;exitX=0;exitY=0.5;exitDx=0;exitDy=0;exitPerimeter=0;entryX=0.87;entryY=0.74;entryDx=0;entryDy=0;entryPerimeter=0;" edge="1" parent="1" source="eoMGSKBOUgeIE6Lk5qr4-2290" target="eoMGSKBOUgeIE6Lk5qr4-2258">
          <mxGeometry relative="1" as="geometry">
            <mxPoint x="680" y="799" as="sourcePoint" />
            <mxPoint x="591" y="799" as="targetPoint" />
          </mxGeometry>
        </mxCell>
        <mxCell id="eoMGSKBOUgeIE6Lk5qr4-2293" style="edgeStyle=orthogonalEdgeStyle;rounded=1;html=1;strokeColor=#23445D;endArrow=none;endFill=0;strokeWidth=4;entryX=0.87;entryY=0.74;entryDx=0;entryDy=0;entryPerimeter=0;exitX=0;exitY=0.5;exitDx=0;exitDy=0;exitPerimeter=0;" edge="1" parent="1" source="eoMGSKBOUgeIE6Lk5qr4-2290" target="eoMGSKBOUgeIE6Lk5qr4-2260">
          <mxGeometry relative="1" as="geometry">
            <mxPoint x="690" y="809" as="sourcePoint" />
            <mxPoint x="601" y="809" as="targetPoint" />
          </mxGeometry>
        </mxCell>
        <mxCell id="eoMGSKBOUgeIE6Lk5qr4-2294" style="edgeStyle=orthogonalEdgeStyle;rounded=1;html=1;strokeColor=#23445D;endArrow=none;endFill=0;strokeWidth=4;entryX=0;entryY=0.5;entryDx=0;entryDy=0;entryPerimeter=0;exitX=0.767;exitY=0.994;exitDx=0;exitDy=0;exitPerimeter=0;" edge="1" parent="1" source="eoMGSKBOUgeIE6Lk5qr4-2262" target="eoMGSKBOUgeIE6Lk5qr4-2290">
          <mxGeometry relative="1" as="geometry">
            <mxPoint x="700" y="819" as="sourcePoint" />
            <mxPoint x="611" y="819" as="targetPoint" />
          </mxGeometry>
        </mxCell>
        <mxCell id="eoMGSKBOUgeIE6Lk5qr4-2295" style="edgeStyle=orthogonalEdgeStyle;rounded=1;html=1;strokeColor=#23445D;endArrow=none;endFill=0;strokeWidth=4;exitX=1;exitY=0.5;exitDx=0;exitDy=0;exitPerimeter=0;entryX=0.201;entryY=1.011;entryDx=0;entryDy=0;entryPerimeter=0;" edge="1" parent="1" source="eoMGSKBOUgeIE6Lk5qr4-2290" target="eoMGSKBOUgeIE6Lk5qr4-2266">
          <mxGeometry relative="1" as="geometry">
            <mxPoint x="710" y="829" as="sourcePoint" />
            <mxPoint x="621" y="829" as="targetPoint" />
          </mxGeometry>
        </mxCell>
        <mxCell id="eoMGSKBOUgeIE6Lk5qr4-2296" style="edgeStyle=orthogonalEdgeStyle;rounded=1;html=1;strokeColor=#23445D;endArrow=none;endFill=0;strokeWidth=4;entryX=0.5;entryY=0.98;entryDx=0;entryDy=0;entryPerimeter=0;exitX=0.5;exitY=0;exitDx=0;exitDy=0;exitPerimeter=0;" edge="1" parent="1" source="eoMGSKBOUgeIE6Lk5qr4-2290" target="eoMGSKBOUgeIE6Lk5qr4-2264">
          <mxGeometry relative="1" as="geometry">
            <mxPoint x="1090" y="1022" as="sourcePoint" />
            <mxPoint x="631" y="839" as="targetPoint" />
          </mxGeometry>
        </mxCell>
        <mxCell id="eoMGSKBOUgeIE6Lk5qr4-2297" style="edgeStyle=orthogonalEdgeStyle;rounded=1;html=1;strokeColor=#23445D;endArrow=none;endFill=0;strokeWidth=4;exitX=0.201;exitY=1.069;exitDx=0;exitDy=0;exitPerimeter=0;entryX=1;entryY=0.5;entryDx=0;entryDy=0;entryPerimeter=0;" edge="1" parent="1" source="eoMGSKBOUgeIE6Lk5qr4-2268" target="eoMGSKBOUgeIE6Lk5qr4-2290">
          <mxGeometry relative="1" as="geometry">
            <mxPoint x="730" y="849" as="sourcePoint" />
            <mxPoint x="641" y="849" as="targetPoint" />
            <Array as="points">
              <mxPoint x="1440" y="1051" />
            </Array>
          </mxGeometry>
        </mxCell>
        <mxCell id="eoMGSKBOUgeIE6Lk5qr4-2298" style="edgeStyle=orthogonalEdgeStyle;rounded=1;html=1;strokeColor=#23445D;endArrow=none;endFill=0;strokeWidth=4;entryX=1;entryY=0.5;entryDx=0;entryDy=0;entryPerimeter=0;exitX=0.201;exitY=1.069;exitDx=0;exitDy=0;exitPerimeter=0;" edge="1" parent="1" source="eoMGSKBOUgeIE6Lk5qr4-2270" target="eoMGSKBOUgeIE6Lk5qr4-2290">
          <mxGeometry relative="1" as="geometry">
            <mxPoint x="1559" y="1052" as="sourcePoint" />
            <mxPoint x="1470" y="1052" as="targetPoint" />
            <Array as="points">
              <mxPoint x="1630" y="1050" />
              <mxPoint x="1121" y="1050" />
            </Array>
          </mxGeometry>
        </mxCell>
        <mxCell id="eoMGSKBOUgeIE6Lk5qr4-2299" style="edgeStyle=orthogonalEdgeStyle;rounded=1;html=1;strokeColor=#23445D;endArrow=none;endFill=0;strokeWidth=4;entryX=1;entryY=0.5;entryDx=0;entryDy=0;entryPerimeter=0;exitX=0.201;exitY=0.983;exitDx=0;exitDy=0;exitPerimeter=0;" edge="1" parent="1" source="eoMGSKBOUgeIE6Lk5qr4-2272" target="eoMGSKBOUgeIE6Lk5qr4-2290">
          <mxGeometry relative="1" as="geometry">
            <mxPoint x="750" y="869" as="sourcePoint" />
            <mxPoint x="661" y="869" as="targetPoint" />
            <Array as="points">
              <mxPoint x="1820" y="1050" />
              <mxPoint x="1121" y="1050" />
            </Array>
          </mxGeometry>
        </mxCell>
        <mxCell id="eoMGSKBOUgeIE6Lk5qr4-2300" value="slice_switch2" style="shape=mxgraph.cisco.switches.workgroup_switch;html=1;dashed=0;fillColor=#10739E;strokeColor=#ffffff;strokeWidth=2;verticalLabelPosition=bottom;verticalAlign=top;fontFamily=Helvetica;fontSize=26;fontColor=#000000;" vertex="1" parent="1">
          <mxGeometry x="470" y="624" width="101" height="50" as="geometry" />
        </mxCell>
        <mxCell id="eoMGSKBOUgeIE6Lk5qr4-2301" style="edgeStyle=none;rounded=1;html=1;strokeColor=#23445D;endArrow=none;endFill=0;strokeWidth=4;exitX=0.5;exitY=0;exitDx=0;exitDy=0;exitPerimeter=0;" edge="1" parent="1" target="eoMGSKBOUgeIE6Lk5qr4-2300" source="eoMGSKBOUgeIE6Lk5qr4-2258">
          <mxGeometry relative="1" as="geometry">
            <mxPoint x="660" y="649" as="sourcePoint" />
          </mxGeometry>
        </mxCell>
        <mxCell id="eoMGSKBOUgeIE6Lk5qr4-2302" value="slice_switch3" style="shape=mxgraph.cisco.switches.workgroup_switch;html=1;dashed=0;fillColor=#10739E;strokeColor=#ffffff;strokeWidth=2;verticalLabelPosition=bottom;verticalAlign=top;fontFamily=Helvetica;fontSize=26;fontColor=#000000;" vertex="1" parent="1">
          <mxGeometry x="660" y="624" width="101" height="50" as="geometry" />
        </mxCell>
        <mxCell id="eoMGSKBOUgeIE6Lk5qr4-2303" style="edgeStyle=none;rounded=1;html=1;strokeColor=#23445D;endArrow=none;endFill=0;strokeWidth=4;exitX=0.5;exitY=0;exitDx=0;exitDy=0;exitPerimeter=0;" edge="1" parent="1" target="eoMGSKBOUgeIE6Lk5qr4-2302" source="eoMGSKBOUgeIE6Lk5qr4-2260">
          <mxGeometry relative="1" as="geometry">
            <mxPoint x="850" y="649" as="sourcePoint" />
          </mxGeometry>
        </mxCell>
        <mxCell id="eoMGSKBOUgeIE6Lk5qr4-2304" value="slice_switch4" style="shape=mxgraph.cisco.switches.workgroup_switch;html=1;dashed=0;fillColor=#10739E;strokeColor=#ffffff;strokeWidth=2;verticalLabelPosition=bottom;verticalAlign=top;fontFamily=Helvetica;fontSize=26;fontColor=#000000;" vertex="1" parent="1">
          <mxGeometry x="850" y="624" width="101" height="50" as="geometry" />
        </mxCell>
        <mxCell id="eoMGSKBOUgeIE6Lk5qr4-2305" style="edgeStyle=none;rounded=1;html=1;strokeColor=#23445D;endArrow=none;endFill=0;strokeWidth=4;" edge="1" parent="1" target="eoMGSKBOUgeIE6Lk5qr4-2304">
          <mxGeometry relative="1" as="geometry">
            <mxPoint x="900" y="762" as="sourcePoint" />
          </mxGeometry>
        </mxCell>
        <mxCell id="eoMGSKBOUgeIE6Lk5qr4-2306" value="slice_switch5" style="shape=mxgraph.cisco.switches.workgroup_switch;html=1;dashed=0;fillColor=#10739E;strokeColor=#ffffff;strokeWidth=2;verticalLabelPosition=bottom;verticalAlign=top;fontFamily=Helvetica;fontSize=26;fontColor=#000000;" vertex="1" parent="1">
          <mxGeometry x="1040" y="624" width="101" height="50" as="geometry" />
        </mxCell>
        <mxCell id="eoMGSKBOUgeIE6Lk5qr4-2307" style="edgeStyle=none;rounded=1;html=1;strokeColor=#23445D;endArrow=none;endFill=0;strokeWidth=4;" edge="1" parent="1" target="eoMGSKBOUgeIE6Lk5qr4-2306">
          <mxGeometry relative="1" as="geometry">
            <mxPoint x="1090" y="752" as="sourcePoint" />
          </mxGeometry>
        </mxCell>
        <mxCell id="eoMGSKBOUgeIE6Lk5qr4-2308" value="slice_switch_6" style="shape=mxgraph.cisco.switches.workgroup_switch;html=1;dashed=0;fillColor=#10739E;strokeColor=#ffffff;strokeWidth=2;verticalLabelPosition=bottom;verticalAlign=top;fontFamily=Helvetica;fontSize=26;fontColor=#000000;" vertex="1" parent="1">
          <mxGeometry x="1230" y="624" width="101" height="50" as="geometry" />
        </mxCell>
        <mxCell id="eoMGSKBOUgeIE6Lk5qr4-2309" style="edgeStyle=none;rounded=1;html=1;strokeColor=#23445D;endArrow=none;endFill=0;strokeWidth=4;exitX=0.5;exitY=0;exitDx=0;exitDy=0;exitPerimeter=0;" edge="1" parent="1" target="eoMGSKBOUgeIE6Lk5qr4-2308" source="eoMGSKBOUgeIE6Lk5qr4-2266">
          <mxGeometry relative="1" as="geometry">
            <mxPoint x="1420" y="649" as="sourcePoint" />
          </mxGeometry>
        </mxCell>
        <mxCell id="eoMGSKBOUgeIE6Lk5qr4-2310" value="slice_switch7" style="shape=mxgraph.cisco.switches.workgroup_switch;html=1;dashed=0;fillColor=#10739E;strokeColor=#ffffff;strokeWidth=2;verticalLabelPosition=bottom;verticalAlign=top;fontFamily=Helvetica;fontSize=26;fontColor=#000000;" vertex="1" parent="1">
          <mxGeometry x="1420" y="624" width="101" height="50" as="geometry" />
        </mxCell>
        <mxCell id="eoMGSKBOUgeIE6Lk5qr4-2311" style="edgeStyle=none;rounded=1;html=1;strokeColor=#23445D;endArrow=none;endFill=0;strokeWidth=4;exitX=0.5;exitY=0;exitDx=0;exitDy=0;exitPerimeter=0;" edge="1" parent="1" target="eoMGSKBOUgeIE6Lk5qr4-2310" source="eoMGSKBOUgeIE6Lk5qr4-2268">
          <mxGeometry relative="1" as="geometry">
            <mxPoint x="1610" y="649" as="sourcePoint" />
          </mxGeometry>
        </mxCell>
        <mxCell id="eoMGSKBOUgeIE6Lk5qr4-2312" value="slice_switch8" style="shape=mxgraph.cisco.switches.workgroup_switch;html=1;dashed=0;fillColor=#10739E;strokeColor=#ffffff;strokeWidth=2;verticalLabelPosition=bottom;verticalAlign=top;fontFamily=Helvetica;fontSize=26;fontColor=#000000;" vertex="1" parent="1">
          <mxGeometry x="1610" y="624" width="101" height="50" as="geometry" />
        </mxCell>
        <mxCell id="eoMGSKBOUgeIE6Lk5qr4-2316" style="edgeStyle=none;rounded=1;html=1;strokeColor=#23445D;endArrow=none;endFill=0;strokeWidth=4;exitX=0.5;exitY=0;exitDx=0;exitDy=0;exitPerimeter=0;" edge="1" parent="1">
          <mxGeometry relative="1" as="geometry">
            <mxPoint x="1659.79" y="754" as="sourcePoint" />
            <mxPoint x="1659.79" y="674" as="targetPoint" />
          </mxGeometry>
        </mxCell>
        <mxCell id="eoMGSKBOUgeIE6Lk5qr4-2317" value="slice_controller" style="shape=mxgraph.cisco.controllers_and_modules.system_controller;sketch=0;html=1;pointerEvents=1;dashed=0;fillColor=#036897;strokeColor=#ffffff;strokeWidth=2;verticalLabelPosition=bottom;verticalAlign=top;align=center;outlineConnect=0;fontSize=26;" vertex="1" parent="1">
          <mxGeometry x="1050" y="480" width="61" height="58" as="geometry" />
        </mxCell>
        <mxCell id="eoMGSKBOUgeIE6Lk5qr4-2318" style="edgeStyle=orthogonalEdgeStyle;rounded=1;html=1;strokeColor=#23445D;endArrow=none;endFill=0;strokeWidth=4;exitX=0;exitY=0.5;exitDx=0;exitDy=0;exitPerimeter=0;" edge="1" parent="1" source="eoMGSKBOUgeIE6Lk5qr4-2317">
          <mxGeometry relative="1" as="geometry">
            <mxPoint x="1050" y="530" as="sourcePoint" />
            <mxPoint x="571" y="623" as="targetPoint" />
          </mxGeometry>
        </mxCell>
        <mxCell id="eoMGSKBOUgeIE6Lk5qr4-2319" style="edgeStyle=orthogonalEdgeStyle;rounded=1;html=1;strokeColor=#23445D;endArrow=none;endFill=0;strokeWidth=4;entryX=0.866;entryY=0.069;entryDx=0;entryDy=0;entryPerimeter=0;exitX=0;exitY=0.5;exitDx=0;exitDy=0;exitPerimeter=0;" edge="1" parent="1" source="eoMGSKBOUgeIE6Lk5qr4-2317" target="eoMGSKBOUgeIE6Lk5qr4-2302">
          <mxGeometry relative="1" as="geometry">
            <mxPoint x="690" y="630" as="sourcePoint" />
            <mxPoint x="748" y="612" as="targetPoint" />
          </mxGeometry>
        </mxCell>
        <mxCell id="eoMGSKBOUgeIE6Lk5qr4-2320" style="edgeStyle=orthogonalEdgeStyle;rounded=1;html=1;strokeColor=#23445D;endArrow=none;endFill=0;strokeWidth=4;exitX=0.767;exitY=0.994;exitDx=0;exitDy=0;exitPerimeter=0;entryX=0;entryY=0.5;entryDx=0;entryDy=0;entryPerimeter=0;" edge="1" parent="1" target="eoMGSKBOUgeIE6Lk5qr4-2317">
          <mxGeometry relative="1" as="geometry">
            <mxPoint x="927" y="625" as="sourcePoint" />
            <mxPoint x="1050" y="530" as="targetPoint" />
            <Array as="points">
              <mxPoint x="927" y="509" />
            </Array>
          </mxGeometry>
        </mxCell>
        <mxCell id="eoMGSKBOUgeIE6Lk5qr4-2321" style="edgeStyle=orthogonalEdgeStyle;rounded=1;html=1;strokeColor=#23445D;endArrow=none;endFill=0;strokeWidth=4;" edge="1" parent="1" source="eoMGSKBOUgeIE6Lk5qr4-2317">
          <mxGeometry relative="1" as="geometry">
            <mxPoint x="710" y="650" as="sourcePoint" />
            <mxPoint x="1261" y="625" as="targetPoint" />
          </mxGeometry>
        </mxCell>
        <mxCell id="eoMGSKBOUgeIE6Lk5qr4-2322" style="edgeStyle=orthogonalEdgeStyle;rounded=1;html=1;strokeColor=#23445D;endArrow=none;endFill=0;strokeWidth=4;entryX=0.5;entryY=0.98;entryDx=0;entryDy=0;entryPerimeter=0;" edge="1" parent="1">
          <mxGeometry relative="1" as="geometry">
            <mxPoint x="1090" y="562" as="sourcePoint" />
            <mxPoint x="1090" y="624" as="targetPoint" />
          </mxGeometry>
        </mxCell>
        <mxCell id="eoMGSKBOUgeIE6Lk5qr4-2323" style="edgeStyle=orthogonalEdgeStyle;rounded=1;html=1;strokeColor=#23445D;endArrow=none;endFill=0;strokeWidth=4;exitX=0.5;exitY=0.98;exitDx=0;exitDy=0;exitPerimeter=0;entryX=1;entryY=0.5;entryDx=0;entryDy=0;entryPerimeter=0;" edge="1" parent="1" target="eoMGSKBOUgeIE6Lk5qr4-2317">
          <mxGeometry relative="1" as="geometry">
            <mxPoint x="1471" y="624" as="sourcePoint" />
            <mxPoint x="641" y="670" as="targetPoint" />
            <Array as="points">
              <mxPoint x="1471" y="509" />
            </Array>
          </mxGeometry>
        </mxCell>
        <mxCell id="eoMGSKBOUgeIE6Lk5qr4-2324" style="edgeStyle=orthogonalEdgeStyle;rounded=1;html=1;strokeColor=#23445D;endArrow=none;endFill=0;strokeWidth=4;exitX=0.371;exitY=1.137;exitDx=0;exitDy=0;exitPerimeter=0;entryX=1;entryY=0.5;entryDx=0;entryDy=0;entryPerimeter=0;" edge="1" parent="1" target="eoMGSKBOUgeIE6Lk5qr4-2317">
          <mxGeometry relative="1" as="geometry">
            <mxPoint x="1647" y="632" as="sourcePoint" />
            <mxPoint x="1470" y="873" as="targetPoint" />
            <Array as="points">
              <mxPoint x="1647" y="509" />
            </Array>
          </mxGeometry>
        </mxCell>
        <mxCell id="eoMGSKBOUgeIE6Lk5qr4-2331" style="edgeStyle=orthogonalEdgeStyle;rounded=1;orthogonalLoop=1;jettySize=auto;html=1;exitX=1;exitY=0.5;exitDx=0;exitDy=0;entryX=0.5;entryY=0;entryDx=0;entryDy=0;strokeWidth=4;endArrow=none;endFill=0;" edge="1" parent="1" source="eoMGSKBOUgeIE6Lk5qr4-2326" target="eoMGSKBOUgeIE6Lk5qr4-2327">
          <mxGeometry relative="1" as="geometry" />
        </mxCell>
        <mxCell id="eoMGSKBOUgeIE6Lk5qr4-2326" value="&lt;font style=&quot;font-size: 26px;&quot;&gt;ESMF&lt;/font&gt;" style="rounded=0;whiteSpace=wrap;html=1;" vertex="1" parent="1">
          <mxGeometry x="160" y="290" width="120" height="60" as="geometry" />
        </mxCell>
        <mxCell id="eoMGSKBOUgeIE6Lk5qr4-2327" value="&lt;font style=&quot;font-size: 26px;&quot;&gt;DSMF&lt;/font&gt;" style="rounded=0;whiteSpace=wrap;html=1;" vertex="1" parent="1">
          <mxGeometry x="280" y="380" width="1670" height="60" as="geometry" />
        </mxCell>
        <mxCell id="eoMGSKBOUgeIE6Lk5qr4-2328" style="edgeStyle=orthogonalEdgeStyle;rounded=1;html=1;strokeColor=#23445D;endArrow=none;endFill=0;strokeWidth=4;" edge="1" parent="1" source="eoMGSKBOUgeIE6Lk5qr4-2326" target="eoMGSKBOUgeIE6Lk5qr4-2274">
          <mxGeometry relative="1" as="geometry">
            <mxPoint x="258" y="685.5" as="sourcePoint" />
            <mxPoint x="130" y="612.5" as="targetPoint" />
          </mxGeometry>
        </mxCell>
      </root>
    </mxGraphModel>
  </diagram>
</mxfile>
